<svg width="65" height="64" viewBox="0 0 65 64" fill="none" xmlns="http://www.w3.org/2000/svg">
<path d="M46.7526 21.095L48.9796 18.889C49.0741 18.7952 49.1273 18.6681 49.1273 18.5355C49.1273 18.4029 49.0741 18.2758 48.9796 18.182L45.4115 14.647C45.3169 14.5533 45.1886 14.5006 45.0548 14.5006C44.921 14.5006 44.7927 14.5533 44.6981 14.647L41.7496 17.569C39.9425 16.6735 38.0058 16.0619 36.0091 15.756V12.5H37.5227C37.6565 12.5 37.7848 12.4473 37.8794 12.3536C37.974 12.2598 38.0272 12.1326 38.0272 12V8C38.0272 7.86739 37.974 7.74021 37.8794 7.64645C37.7848 7.55268 37.6565 7.5 37.5227 7.5H28.4411C28.3073 7.5 28.1789 7.55268 28.0843 7.64645C27.9897 7.74021 27.9365 7.86739 27.9365 8V12C27.9365 12.1326 27.9897 12.2598 28.0843 12.3536C28.1789 12.4473 28.3073 12.5 28.4411 12.5H29.9547V15.756C25.5762 16.4312 21.5559 18.5511 18.5445 21.7724C15.5331 24.9938 13.7069 29.1281 13.3615 33.5061C13.0161 37.884 14.1718 42.2494 16.6415 45.8954C19.1111 49.5415 22.7502 52.2548 26.9696 53.5961C31.1889 54.9374 35.7416 54.8282 39.8905 53.2862C44.0395 51.7442 47.5418 48.8597 49.8307 45.0995C52.1195 41.3394 53.0608 36.9238 52.5021 32.5675C51.9435 28.2112 49.9177 24.1693 46.7526 21.096V21.095ZM42.6991 18.042L45.0553 15.707L47.9089 18.536L46.026 20.402C45.915 20.304 45.7909 20.222 45.6779 20.127C45.4801 19.961 45.2743 19.805 45.0694 19.647C44.7607 19.407 44.4519 19.169 44.129 18.949C43.911 18.799 43.684 18.664 43.46 18.524C43.2047 18.364 42.9605 18.189 42.6991 18.041V18.042ZM28.9456 8.5H37.0181V11.5H28.9456V8.5ZM30.9637 15.603V12.5H35V15.603H34.999C33.6584 15.467 32.3073 15.467 30.9668 15.603H30.9637ZM32.9819 53.501C28.211 53.5042 23.62 51.6968 20.152 48.4499C16.6841 45.2029 14.6024 40.7632 14.3348 36.0426C14.0672 31.322 15.6338 26.6791 18.713 23.0676C21.7921 19.4562 26.1499 17.1504 30.8911 16.624C31.0253 16.61 31.1605 16.597 31.2957 16.585C31.8811 16.531 32.4687 16.5043 33.0565 16.505C33.5994 16.506 34.1362 16.538 34.667 16.585C34.8032 16.597 34.9395 16.61 35.0757 16.625C37.448 16.8859 39.747 17.5987 41.8465 18.724L41.9312 18.771C42.4156 19.0343 42.8858 19.3177 43.3419 19.621L43.4529 19.695C46.7592 21.9149 49.2598 25.1274 50.5869 28.8603C51.914 32.5932 51.9978 36.6495 50.8258 40.4331C49.6539 44.2167 47.288 47.5278 44.0761 49.8799C40.8642 52.232 36.9755 53.5008 32.9819 53.5V53.501ZM32.9819 19.501C29.8885 19.5012 26.8646 20.4105 24.2926 22.1138C21.7207 23.8171 19.7162 26.238 18.5326 29.0703C17.349 31.9027 17.0394 35.0192 17.6431 38.0259C18.2468 41.0325 19.7366 43.7943 21.9241 45.9619C24.1116 48.1294 26.8986 49.6055 29.9326 50.2034C32.9666 50.8012 36.1113 50.4941 38.9692 49.3208C41.827 48.1474 44.2696 46.1606 45.988 43.6115C47.7065 41.0624 48.6236 38.0656 48.6234 35C48.6185 30.8906 46.9692 26.9509 44.0371 24.0451C41.1049 21.1393 37.1295 19.5048 32.9829 19.5L32.9819 19.501ZM32.9819 49.501C30.0881 49.5008 27.2593 48.6502 24.8534 47.0568C22.4474 45.4634 20.5722 43.1988 19.4649 40.5492C18.3577 37.8997 18.068 34.9842 18.6327 32.1716C19.1974 29.3589 20.591 26.7754 22.6373 24.7476C24.6835 22.7198 27.2906 21.3389 30.1288 20.7795C32.967 20.2201 35.9088 20.5073 38.5823 21.6048C41.2558 22.7023 43.5409 24.5608 45.1485 26.9453C46.7562 29.3298 47.6143 32.1332 47.6143 35.001C47.6098 38.8453 46.0668 42.5308 43.3238 45.2491C40.5809 47.9674 36.862 49.4965 32.9829 49.501H32.9819ZM38.786 28.541L33.4864 33.794V23.582C33.4864 23.4494 33.4332 23.3222 33.3386 23.2284C33.244 23.1347 33.1157 23.082 32.9819 23.082C32.8481 23.082 32.7197 23.1347 32.6251 23.2284C32.5305 23.3222 32.4773 23.4494 32.4773 23.582V35C32.4773 35.127 32.526 35.2493 32.6136 35.342H32.6146L32.6368 35.364V35.365H32.6378C32.6826 35.4069 32.735 35.4402 32.7922 35.463C32.8512 35.4868 32.9141 35.4993 32.9778 35.5H32.9879C33.0527 35.4991 33.1167 35.4862 33.1766 35.462V35.461C33.2374 35.4363 33.2926 35.4 33.3391 35.354L39.4994 29.248C39.5913 29.1537 39.6422 29.0274 39.641 28.8963C39.6399 28.7652 39.5868 28.6398 39.4933 28.5471C39.3997 28.4544 39.2732 28.4018 39.1409 28.4007C39.0086 28.3995 38.8812 28.4499 38.786 28.541Z" fill="black"/>
</svg>
