<svg width="65" height="64" viewBox="0 0 65 64" fill="none" xmlns="http://www.w3.org/2000/svg">
<path d="M56.2144 42.8279H8.81263C8.43269 42.8282 8.06839 42.9779 7.79973 43.2441C7.53108 43.5104 7.38003 43.8714 7.37976 44.2479V45.6419C7.38083 46.7834 7.83881 47.8779 8.65321 48.6852C9.46761 49.4925 10.5719 49.9466 11.7238 49.9479H53.3012C54.4533 49.9466 55.5578 49.4925 56.3725 48.6853C57.1872 47.8781 57.6457 46.7836 57.6473 45.6419V44.2479C57.647 43.8714 57.496 43.5104 57.2273 43.2441C56.9586 42.9779 56.5943 42.8282 56.2144 42.8279ZM56.6382 45.6419C56.6371 46.5186 56.2852 47.359 55.6596 47.9788C55.034 48.5986 54.1858 48.9471 53.3012 48.9479H11.7238C10.8395 48.9466 9.99189 48.5978 9.36673 47.9781C8.74156 47.3584 8.38989 46.5182 8.38882 45.6419V44.2479C8.38882 44.1365 8.43348 44.0297 8.51295 43.9509C8.59243 43.8722 8.70023 43.8279 8.81263 43.8279H56.2144C56.3268 43.8279 56.4346 43.8722 56.5141 43.9509C56.5936 44.0297 56.6382 44.1365 56.6382 44.2479V45.6419ZM38.0149 44.7249H27.0091C26.623 44.7257 26.2529 44.8781 25.98 45.1488C25.7071 45.4195 25.5535 45.7863 25.553 46.1689V46.6069C25.5533 46.9897 25.7067 47.3568 25.9796 47.6277C26.2526 47.8986 26.6228 48.0511 27.0091 48.0519H38.0149C38.4017 48.0519 38.7727 47.8997 39.0463 47.6288C39.3199 47.3578 39.4738 46.9903 39.474 46.6069V46.1689C39.4735 45.7858 39.3195 45.4185 39.046 45.1477C38.7724 44.877 38.4016 44.7249 38.0149 44.7249ZM38.465 46.6069C38.4647 46.725 38.4172 46.8382 38.3328 46.9216C38.2484 47.0051 38.1341 47.0519 38.0149 47.0519H27.0091C26.8907 47.0501 26.7778 47.0026 26.6943 46.9195C26.6108 46.8363 26.5634 46.7242 26.5621 46.6069V46.1689C26.5636 46.0518 26.6112 45.9399 26.6947 45.857C26.7781 45.7741 26.8909 45.7267 27.0091 45.7249H38.0149C38.1339 45.7249 38.2481 45.7716 38.3324 45.8548C38.4168 45.9381 38.4644 46.051 38.465 46.1689V46.6069ZM23.0687 34.7059C23.7821 34.7033 24.4656 34.421 24.9698 33.9208C25.474 33.4206 25.758 32.743 25.7599 32.0359C25.7593 31.858 25.7394 31.6806 25.7003 31.5069L28.6821 28.5509C29.0336 28.632 29.3992 28.632 29.7507 28.5509L31.8475 30.6289C31.8095 30.8021 31.7902 30.9787 31.79 31.1559C31.7831 31.5107 31.8476 31.8633 31.9798 32.1931C32.112 32.5228 32.3093 32.8232 32.56 33.0765C32.8107 33.3298 33.1099 33.5311 33.44 33.6684C33.7702 33.8058 34.1246 33.8766 34.4827 33.8766C34.8408 33.8766 35.1952 33.8058 35.5254 33.6684C35.8555 33.5311 36.1547 33.3298 36.4054 33.0765C36.6561 32.8232 36.8534 32.5228 36.9856 32.1931C37.1178 31.8633 37.1823 31.5107 37.1754 31.1559C37.1747 30.9783 37.1544 30.8012 37.1148 30.6279L41.4266 26.3549C41.6021 26.3941 41.7814 26.4143 41.9614 26.4149H41.9624C42.4952 26.4149 43.0161 26.2583 43.4592 25.9649C43.9023 25.6716 44.2476 25.2546 44.4515 24.7667C44.6554 24.2788 44.7088 23.742 44.6048 23.224C44.5009 22.7061 44.2443 22.2304 43.8675 21.8569C43.4907 21.4835 43.0106 21.2292 42.488 21.1262C41.9654 21.0232 41.4237 21.0761 40.9314 21.2782C40.4391 21.4803 40.0183 21.8225 39.7222 22.2616C39.4262 22.7006 39.2682 23.2168 39.2682 23.7449C39.2689 23.9225 39.2888 24.0996 39.3277 24.2729L35.016 28.5479C34.6651 28.4673 34.3003 28.4673 33.9494 28.5479L31.8506 26.4679C31.8903 26.2943 31.9106 26.1169 31.9111 25.9389C31.9112 25.5886 31.8417 25.2417 31.7065 24.918C31.5714 24.5943 31.3731 24.3002 31.1232 24.0524C30.8733 23.8047 30.5766 23.6081 30.25 23.474C29.9235 23.3399 29.5734 23.2709 29.2199 23.2709H29.2179C28.5041 23.2717 27.8196 23.553 27.3148 24.0532C26.8099 24.5533 26.5258 25.2315 26.5247 25.9389C26.5257 26.1166 26.546 26.2936 26.5853 26.4669L23.6025 29.4239C23.2113 29.3405 22.8062 29.3454 22.4171 29.4382C22.0281 29.5309 21.6651 29.7092 21.355 29.9599C21.0449 30.2105 20.7957 30.5271 20.6258 30.8861C20.4559 31.2451 20.3697 31.6374 20.3735 32.0339C20.3748 32.7418 20.659 33.4204 21.1639 33.9212C21.6688 34.4219 22.3533 34.7041 23.0677 34.7059H23.0687ZM23.0657 30.3649C23.2458 30.3677 23.4243 30.3991 23.5944 30.4579L23.8901 30.5549L27.7245 26.7519L27.6286 26.4609C27.5398 26.2111 27.5133 25.9436 27.5512 25.6814C27.5891 25.4192 27.6905 25.1699 27.8465 24.9549C28.0026 24.7398 28.2088 24.5653 28.4476 24.4462C28.6864 24.3271 28.9506 24.267 29.2179 24.2709H29.2199C29.6661 24.2712 30.094 24.447 30.4094 24.7598C30.7248 25.0726 30.902 25.4967 30.902 25.9389C30.8995 26.1155 30.8678 26.2905 30.8082 26.4569L30.7083 26.7499L33.6618 29.6759L33.9545 29.5819C34.2945 29.4544 34.6699 29.4544 35.0099 29.5819L35.3026 29.6769L40.468 24.5569L40.3701 24.2649C40.2607 23.9307 40.261 23.5707 40.3708 23.2367C40.4807 22.9026 40.6945 22.6116 40.9816 22.4054C41.2686 22.1992 41.6142 22.0884 41.9688 22.0889C42.3233 22.0894 42.6686 22.2012 42.9551 22.4083C43.2415 22.6153 43.4545 22.9069 43.5633 23.2413C43.6722 23.5757 43.6714 23.9356 43.561 24.2695C43.4507 24.6035 43.2365 24.8941 42.9491 25.0999C42.6617 25.3057 42.3159 25.416 41.9614 25.4149C41.7818 25.412 41.6039 25.3803 41.4346 25.3209L41.139 25.2249L35.9746 30.3449L36.0715 30.6369C36.131 30.8041 36.163 30.9797 36.1663 31.1569C36.1718 31.3795 36.1323 31.6009 36.0502 31.8081C35.9681 32.0153 35.8449 32.2041 35.688 32.3634C35.5312 32.5227 35.3437 32.6493 35.1367 32.7358C34.9297 32.8222 34.7073 32.8668 34.4827 32.8668C34.2581 32.8668 34.0357 32.8222 33.8287 32.7358C33.6217 32.6493 33.4342 32.5227 33.2774 32.3634C33.1205 32.2041 32.9973 32.0153 32.9152 31.8081C32.8331 31.6009 32.7936 31.3795 32.7991 31.1569C32.8012 30.9798 32.8322 30.8042 32.8909 30.6369L32.9878 30.3449L30.0363 27.4189L29.7406 27.5169C29.4017 27.6431 29.0281 27.6431 28.6892 27.5169L28.3945 27.4209L24.5621 31.2209L24.6569 31.5129C24.767 31.8473 24.7673 32.2076 24.6579 32.5421C24.5484 32.8767 24.3348 33.1683 24.0477 33.375C23.7606 33.5818 23.4148 33.6931 23.0599 33.6929C22.7051 33.6928 22.3593 33.5812 22.0724 33.3742C21.7855 33.1672 21.5722 32.8755 21.463 32.5408C21.3538 32.2062 21.3544 31.8459 21.4648 31.5116C21.5751 31.1773 21.7894 30.8863 22.0771 30.6803C22.3647 30.4743 22.7108 30.3639 23.0657 30.3649ZM13.4886 40.9349H51.5394C52.0609 40.9344 52.5609 40.7287 52.9295 40.3631C53.298 39.9974 53.5051 39.5018 53.5051 38.9849V18.6309C53.504 17.6278 53.1015 16.6661 52.3859 15.9568C51.6703 15.2474 50.6999 14.8482 49.6878 14.8469H15.3393C14.327 14.8482 13.3566 15.2473 12.6408 15.9567C11.925 16.666 11.5223 17.6278 11.521 18.6309V38.9849C11.521 39.5019 11.7281 39.9978 12.0969 40.3634C12.4657 40.7291 12.9659 40.9347 13.4876 40.9349H13.4886ZM12.53 18.6309C12.5308 17.8926 12.8272 17.1848 13.3541 16.6629C13.8809 16.1409 14.5953 15.8475 15.3403 15.8469H49.6878C50.4324 15.848 51.1462 16.1417 51.6727 16.6636C52.1991 17.1855 52.4952 17.893 52.496 18.6309V38.9849C52.496 39.2367 52.3951 39.4782 52.2156 39.6563C52.036 39.8345 51.7925 39.9347 51.5384 39.9349H13.4876C13.2337 39.9344 12.9904 39.8341 12.8111 39.656C12.6317 39.4779 12.531 39.2365 12.531 38.9849V18.6309H12.53Z" fill="black"/>
</svg>
