<svg width="65" height="64" viewBox="0 0 65 64" fill="none" xmlns="http://www.w3.org/2000/svg">
<path d="M33.1563 30.077H31.451C31.3172 30.077 31.1889 30.1297 31.0943 30.2234C30.9996 30.3172 30.9465 30.4444 30.9465 30.577V35.1C30.9465 35.2326 30.9996 35.3598 31.0943 35.4535C31.1889 35.5473 31.3172 35.6 31.451 35.6L32.339 35.602H32.7012C33.1619 35.6626 33.6301 35.6321 34.0788 35.5125C34.5275 35.3929 34.9479 35.1864 35.3157 34.905C35.5527 34.6392 35.7325 34.3283 35.8441 33.9913C35.9556 33.6543 35.9966 33.2983 35.9646 32.945C35.9625 30.962 35.0968 30.078 33.1563 30.078V30.077ZM34.6013 34.198C33.9177 34.5828 33.1222 34.7249 32.3461 34.601L31.9545 34.599V31.077H33.1553C34.5337 31.077 34.9535 31.514 34.9555 32.95C35.0081 33.3959 34.8812 33.8443 34.6023 34.198H34.6013ZM33.1563 27.043H30.0827C29.4891 27.0446 28.9202 27.279 28.5005 27.695C28.0807 28.111 27.8442 28.6747 27.8426 29.263V34.61C27.4248 34.6418 27.0246 34.7902 26.6882 35.038C26.4572 35.2189 26.2704 35.4493 26.142 35.7119C26.0135 35.9745 25.9466 36.2624 25.9463 36.5543C25.946 36.8461 26.0123 37.1342 26.1403 37.397C26.2682 37.6599 26.4545 37.8906 26.6852 38.072C27.0215 38.3226 27.4231 38.4728 27.8426 38.505V39.471C27.4254 39.5028 27.0257 39.6504 26.6892 39.897C26.4578 40.0776 26.2705 40.3077 26.1416 40.5703C26.0128 40.8328 25.9455 41.1208 25.9451 41.4128C25.9446 41.7047 26.0108 41.993 26.1388 42.2559C26.2669 42.5189 26.4533 42.7497 26.6842 42.931C27.0205 43.1825 27.4225 43.3331 27.8426 43.365V43.589C27.8416 44.1218 28.0476 44.6346 28.4178 45.021C28.6074 45.2228 28.8365 45.3841 29.0913 45.495C29.346 45.6059 29.6209 45.6641 29.8991 45.666C30.1768 45.6667 30.4517 45.6105 30.7064 45.5009C30.9612 45.3912 31.1903 45.2306 31.3794 45.029C31.7502 44.6398 31.9561 44.1243 31.9545 43.589V43.377C32.4566 43.3857 32.9474 43.2292 33.3501 42.932C33.5811 42.7508 33.7678 42.52 33.8959 42.2571C34.024 41.9941 34.0903 41.7058 34.0898 41.4138C34.0894 41.1218 34.0221 40.8337 33.8931 40.5711C33.7641 40.3086 33.5767 40.0784 33.345 39.898C32.9422 39.6055 32.4539 39.4513 31.9545 39.459V38.517H33.1553C34.728 38.6003 36.2712 38.0713 37.456 37.043C38.0013 36.5059 38.4263 35.861 38.7033 35.1503C38.9803 34.4395 39.103 33.6789 39.0634 32.918C39.0975 32.1314 38.9734 31.3459 38.6981 30.6073C38.4228 29.8687 38.0019 29.1918 37.46 28.616C36.8873 28.079 36.2106 27.6627 35.4708 27.3924C34.7311 27.122 33.9437 27.0031 33.1563 27.043ZM36.7647 36.315C35.7647 37.1642 34.4709 37.5951 33.1563 37.517H31.451C31.3172 37.517 31.1889 37.5697 31.0943 37.6634C30.9996 37.7572 30.9465 37.8844 30.9465 38.017V39.959C30.9465 40.0916 30.9996 40.2188 31.0943 40.3125C31.1889 40.4063 31.3172 40.459 31.451 40.459H31.9354C32.2195 40.4493 32.4992 40.5311 32.7325 40.692C32.8417 40.7794 32.9297 40.8898 32.9902 41.0153C33.0506 41.1407 33.082 41.278 33.082 41.417C33.082 41.556 33.0506 41.6933 32.9902 41.8187C32.9297 41.9442 32.8417 42.0546 32.7325 42.142C32.4996 42.3041 32.2198 42.3866 31.9354 42.377H31.451C31.3172 42.377 31.1889 42.4297 31.0943 42.5234C30.9996 42.6172 30.9465 42.7444 30.9465 42.877V43.589C30.9457 43.8699 30.8376 44.14 30.6438 44.345C30.549 44.4471 30.4336 44.5284 30.3052 44.5837C30.1768 44.639 30.0381 44.667 29.8981 44.666C29.7574 44.6642 29.6186 44.6338 29.4902 44.5769C29.3618 44.52 29.2465 44.4377 29.1514 44.335C28.9586 44.1336 28.8513 43.8666 28.8517 43.589V42.877C28.8517 42.7444 28.7985 42.6172 28.7039 42.5234C28.6093 42.4297 28.4809 42.377 28.3471 42.377H28.0999C27.8154 42.3863 27.5355 42.3034 27.3028 42.141C27.1939 42.0536 27.1061 41.9431 27.0458 41.8177C26.9855 41.6923 26.9543 41.5551 26.9544 41.4163C26.9545 41.2774 26.9859 41.1403 27.0464 41.0149C27.1068 40.8896 27.1948 40.7793 27.3038 40.692C27.5371 40.531 27.8168 40.4493 28.1009 40.459H28.3471C28.4809 40.459 28.6093 40.4063 28.7039 40.3125C28.7985 40.2188 28.8517 40.0916 28.8517 39.959V38.017C28.8517 37.8844 28.7985 37.7572 28.7039 37.6634C28.6093 37.5697 28.4809 37.517 28.3471 37.517H28.0999C27.8154 37.5261 27.5356 37.4433 27.3028 37.281C27.194 37.1934 27.1064 37.083 27.0462 36.9576C26.9861 36.8322 26.9549 36.6951 26.955 36.5563C26.9551 36.4174 26.9865 36.2804 27.0468 36.1551C27.1071 36.0298 27.1949 35.9194 27.3038 35.832C27.5371 35.671 27.8168 35.5893 28.1009 35.599H28.3471C28.4809 35.599 28.6093 35.5463 28.7039 35.4525C28.7985 35.3588 28.8517 35.2316 28.8517 35.099V29.264C28.8533 28.9409 28.9835 28.6315 29.214 28.4031C29.4445 28.1746 29.7567 28.0456 30.0827 28.044H33.1563C33.8105 28.0063 34.4656 28.1001 35.0822 28.3198C35.6988 28.5394 36.2643 28.8803 36.7446 29.322C37.6406 30.3038 38.111 31.5954 38.0543 32.918C38.0913 33.5421 37.9956 34.167 37.7735 34.7522C37.5513 35.3373 37.2077 35.8698 36.7647 36.315ZM46.3811 46.479V34.457C46.4033 32.6379 46.0608 30.8325 45.3737 29.1455C44.6866 27.4586 43.6684 25.9235 42.3782 24.6294C41.088 23.3353 39.5514 22.3078 37.8576 21.6065C36.1637 20.9053 34.3463 20.5442 32.5105 20.5442C30.6748 20.5442 28.8573 20.9053 27.1635 21.6065C25.4696 22.3078 23.9331 23.3353 22.6429 24.6294C21.3527 25.9235 20.3345 27.4586 19.6474 29.1455C18.9602 30.8325 18.6178 32.6379 18.6399 34.457V46.472C18.105 46.8417 17.703 47.371 17.4925 47.9827C17.282 48.5944 17.2739 49.2568 17.4694 49.8734C17.6649 50.49 18.0538 51.0287 18.5796 51.4112C19.1053 51.7937 19.7405 51.9999 20.3927 52H44.6163C45.2674 52.0003 45.9017 51.795 46.4272 51.414C46.9527 51.0329 47.342 50.4959 47.5388 49.8808C47.7356 49.2657 47.7295 48.6045 47.5215 47.993C47.3136 47.3815 46.9145 46.8516 46.3821 46.48L46.3811 46.479ZM44.6163 51H20.3937C19.8486 50.9995 19.326 50.7847 18.9405 50.4028C18.555 50.021 18.338 49.5032 18.3372 48.963C18.3342 48.6002 18.4305 48.2433 18.6158 47.9304C18.8011 47.6175 19.0686 47.3603 19.3897 47.186C19.4685 47.1426 19.5342 47.0791 19.5799 47.0021C19.6257 46.9251 19.6499 46.8374 19.65 46.748V34.457C19.635 32.7736 19.9566 31.1039 20.5962 29.5444C21.2358 27.9848 22.1808 26.5663 23.3767 25.3706C24.5725 24.175 25.9955 23.2259 27.5635 22.5782C29.1314 21.9306 30.8133 21.5971 32.512 21.5971C34.2108 21.5971 35.8927 21.9306 37.4606 22.5782C39.0286 23.2259 40.4516 24.175 41.6474 25.3706C42.8433 26.5663 43.7883 27.9848 44.4279 29.5444C45.0675 31.1039 45.3891 32.7736 45.3741 34.457V46.755C45.3742 46.8436 45.3981 46.9306 45.4433 47.007C45.4886 47.0834 45.5535 47.1466 45.6314 47.19C46.0268 47.4117 46.337 47.7569 46.5134 48.1718C46.6899 48.5866 46.7227 49.0477 46.6067 49.483C46.4908 49.9183 46.2325 50.3033 45.8724 50.5777C45.5123 50.8522 45.0706 51.0007 44.6163 51ZM27.5026 19.197C27.5618 19.2988 27.6554 19.3767 27.7669 19.4169C27.8783 19.4572 28.0006 19.4572 28.112 19.417C30.9514 18.3991 34.0606 18.3977 36.901 19.413C37.0124 19.4532 37.1347 19.4532 37.2461 19.4129C37.3576 19.3727 37.4512 19.2948 37.5104 19.193L39.6628 15.5C39.9117 15.1367 40.0566 14.7133 40.0822 14.2749C40.1078 13.8364 40.0131 13.3993 39.8081 13.01C39.5702 12.6391 39.2354 12.3391 38.8391 12.1419C38.4429 11.9447 38.0001 11.8576 37.5579 11.89H27.4521C27.0099 11.8574 26.567 11.9443 26.1707 12.1416C25.7744 12.3388 25.4396 12.639 25.2019 13.01C24.9969 13.3994 24.9023 13.8367 24.9282 14.2752C24.9542 14.7137 25.0997 15.137 25.3492 15.5L27.5026 19.197ZM26.0767 13.51C26.2297 13.2948 26.4377 13.1239 26.6795 13.0149C26.9212 12.9059 27.1879 12.8628 27.4521 12.89H37.5589C37.8231 12.8627 38.0898 12.9058 38.3316 13.0148C38.5734 13.1237 38.7814 13.2947 38.9342 13.51C39.0455 13.7488 39.0907 14.0127 39.0652 14.2745C39.0397 14.5363 38.9443 14.7867 38.7889 15L36.8435 18.335C34.0238 17.4226 30.9843 17.424 28.1655 18.339L26.2231 15C26.0672 14.787 25.9715 14.5366 25.9458 14.2747C25.9201 14.0128 25.9653 13.7488 26.0767 13.51Z" fill="black"/>
</svg>
