<svg width="66" height="64" viewBox="0 0 66 64" fill="none" xmlns="http://www.w3.org/2000/svg">
<path d="M50.6586 16.551C44.2804 16.5536 38.1203 14.2507 33.333 10.074C33.2408 9.99403 33.1225 9.94995 33 9.94995C32.8775 9.94995 32.7592 9.99403 32.667 10.074C27.8796 14.2503 21.7194 16.5529 15.3414 16.55C15.2076 16.55 15.0792 16.6027 14.9846 16.6964C14.89 16.7902 14.8369 16.9174 14.8369 17.05V33.05C14.8369 43.003 30.0011 54.05 33 54.05C35.9999 54.05 51.1631 43.003 51.1631 33.05V17.05C51.1631 16.9174 51.11 16.7902 51.0154 16.6964C50.9207 16.6027 50.7924 16.55 50.6586 16.55V16.551ZM50.1541 33.051C50.1541 42.581 34.8799 53.051 33 53.051C31.1191 53.051 15.8459 42.581 15.8459 33.051V17.547C22.1431 17.4332 28.2056 15.1586 33 11.111C37.7943 15.1587 43.8569 17.4333 50.1541 17.547V33.05V33.051ZM32.667 13.768C28.7163 17.2153 23.6324 19.116 18.3686 19.114C18.2348 19.114 18.1064 19.1667 18.0118 19.2604C17.9172 19.3542 17.864 19.4814 17.864 19.614V32.87C17.864 41.157 30.5005 50.355 33 50.355C35.4994 50.355 48.1359 41.157 48.1359 32.87V19.614C48.1359 19.4814 48.0828 19.3542 47.9882 19.2604C47.8936 19.1667 47.7652 19.114 47.6314 19.114C42.3676 19.116 37.2837 17.2153 33.333 13.768C33.2408 13.688 33.1225 13.644 33 13.644C32.8775 13.644 32.7592 13.688 32.667 13.768ZM18.8731 32.871V20.108C23.8351 19.9947 28.6218 18.2673 32.4955 15.192V49.22C29.6953 48.11 18.8731 40.16 18.8731 32.87V32.871ZM47.1269 32.871C47.1269 40.16 36.3047 48.11 33.5045 49.221V15.191C37.3779 18.2668 42.1647 19.9946 47.1269 20.108V32.871Z" fill="black"/>
</svg>
