<svg width="66" height="64" viewBox="0 0 66 64" fill="none" xmlns="http://www.w3.org/2000/svg">
<path d="M51.258 25.463H49.2207C48.9505 25.4633 48.6897 25.5616 48.4876 25.7394C48.2855 25.9172 48.1561 26.1622 48.1238 26.428C48.0995 26.5979 48.0141 26.7534 47.8833 26.8658C47.7525 26.9782 47.5851 27.0401 47.412 27.0399C47.2389 27.0398 47.0716 26.9777 46.941 26.8651C46.8104 26.7525 46.7252 26.5969 46.7011 26.427C46.6685 26.1613 46.539 25.9166 46.337 25.739C46.1349 25.5615 45.8743 25.4633 45.6042 25.463H43.3661C43.0733 25.4636 42.7927 25.5791 42.5858 25.7844C42.3788 25.9897 42.2625 26.2679 42.2622 26.558V32.772H39.1543V21.192H39.8505C40.1433 21.1918 40.4241 21.0765 40.6312 20.8714C40.8383 20.6663 40.9549 20.3882 40.9555 20.098V14.573C40.9552 14.2827 40.8387 14.0043 40.6315 13.799C40.4244 13.5937 40.1435 13.4783 39.8505 13.478H37.8324C37.5622 13.4783 37.3014 13.5766 37.0993 13.7544C36.8973 13.9322 36.7679 14.1772 36.7356 14.443C36.7123 14.6134 36.6275 14.7697 36.4968 14.8829C36.3662 14.9961 36.1986 15.0585 36.0251 15.0586C35.8516 15.0587 35.6839 14.9965 35.5531 14.8835C35.4223 14.7705 35.3373 14.6144 35.3138 14.444C35.2819 14.1777 35.1525 13.9323 34.9502 13.7542C34.7478 13.5761 34.4865 13.4779 34.2159 13.478H32.001C31.7306 13.4781 31.4696 13.5763 31.2673 13.7541C31.065 13.9319 30.9355 14.177 30.9032 14.443C30.8798 14.6134 30.7948 14.7696 30.6641 14.8827C30.5334 14.9958 30.3658 15.0581 30.1923 15.0581C30.0188 15.0581 29.8511 14.9958 29.7204 14.8827C29.5897 14.7696 29.5048 14.6134 29.4814 14.443C29.4489 14.1772 29.3194 13.9324 29.1174 13.7547C28.9154 13.5769 28.6547 13.4785 28.3845 13.478H26.1273C25.8343 13.4783 25.5534 13.5937 25.3463 13.799C25.1391 14.0043 25.0226 14.2827 25.0223 14.573V20.098C25.0226 20.3884 25.1391 20.6667 25.3463 20.872C25.5534 21.0773 25.8343 21.1928 26.1273 21.193H26.8235V32.773H23.6298V26.558C23.6296 26.2677 23.5131 25.9893 23.3059 25.784C23.0988 25.5787 22.8179 25.4633 22.5249 25.463H20.4886C20.2183 25.4633 19.9574 25.5616 19.7551 25.7393C19.5529 25.9171 19.4233 26.1621 19.3908 26.428C19.3674 26.5984 19.2824 26.7546 19.1517 26.8677C19.021 26.9808 18.8534 27.0431 18.6799 27.0431C18.5064 27.0431 18.3387 26.9808 18.208 26.8677C18.0773 26.7546 17.9924 26.5984 17.969 26.428C17.9369 26.1621 17.8076 25.917 17.6054 25.7392C17.4033 25.5613 17.1424 25.4631 16.8721 25.463H14.635C14.3423 25.4636 14.0616 25.5791 13.8547 25.7844C13.6478 25.9897 13.5314 26.2679 13.5311 26.558V49.082C13.5311 49.3724 13.6474 49.6508 13.8543 49.8563C14.0613 50.0618 14.3421 50.1775 14.635 50.178H27.7973C28.0887 50.1773 28.368 50.0627 28.5749 49.8593C28.7817 49.6558 28.8993 49.3798 28.9022 49.091C28.9191 48.0164 29.3618 46.9916 30.1346 46.2376C30.9074 45.4836 31.9483 45.061 33.0328 45.061C34.1173 45.061 35.1582 45.4836 35.931 46.2376C36.7038 46.9916 37.1464 48.0164 37.1634 49.091C37.1666 49.3797 37.2843 49.6556 37.491 49.859C37.6978 50.0624 37.977 50.177 38.2683 50.178H51.259C51.552 50.1775 51.8327 50.0618 52.0397 49.8563C52.2467 49.6508 52.3629 49.3724 52.3629 49.082V26.558C52.3626 26.2679 52.2463 25.9897 52.0394 25.7844C51.8324 25.5791 51.5518 25.4636 51.259 25.463H51.258ZM51.3528 49.082C51.3528 49.1071 51.3429 49.1313 51.3252 49.1492C51.3075 49.1672 51.2833 49.1775 51.258 49.178H38.2673C38.2419 49.178 38.2175 49.168 38.1995 49.1502C38.1815 49.1324 38.1714 49.1082 38.1714 49.083C38.1525 47.7445 37.6027 46.4672 36.6409 45.5272C35.6791 44.5873 34.3826 44.0604 33.0318 44.0604C31.681 44.0604 30.3845 44.5873 29.4227 45.5272C28.4609 46.4672 27.911 47.7445 27.8921 49.083C27.8921 49.1082 27.882 49.1324 27.864 49.1502C27.8461 49.168 27.8217 49.178 27.7963 49.178H14.634C14.6214 49.1779 14.609 49.1753 14.5974 49.1704C14.5858 49.1655 14.5754 49.1584 14.5665 49.1495C14.5577 49.1406 14.5508 49.13 14.5461 49.1185C14.5414 49.1069 14.539 49.0945 14.5392 49.082V26.558C14.5392 26.533 14.5491 26.509 14.5669 26.4912C14.5847 26.4734 14.6088 26.4633 14.634 26.463H16.8721C16.8955 26.4629 16.9181 26.4712 16.9356 26.4866C16.9531 26.5019 16.9643 26.523 16.967 26.546C17.0197 26.9594 17.2228 27.3395 17.5381 27.615C17.8535 27.8905 18.2595 28.0425 18.6799 28.0425C19.1003 28.0425 19.5062 27.8905 19.8216 27.615C20.137 27.3395 20.3401 26.9594 20.3928 26.546C20.3957 26.523 20.4071 26.5018 20.4248 26.4865C20.4424 26.4712 20.4652 26.4628 20.4886 26.463H22.5249C22.5503 26.463 22.5747 26.473 22.5927 26.4909C22.6107 26.5087 22.6208 26.5328 22.6208 26.558V33.272C22.6208 33.4046 22.6739 33.5318 22.7685 33.6256C22.8632 33.7194 22.9915 33.772 23.1253 33.772H27.3281C27.4619 33.772 27.5902 33.7194 27.6848 33.6256C27.7794 33.5318 27.8326 33.4046 27.8326 33.272V20.692C27.8326 20.5594 27.7794 20.4322 27.6848 20.3385C27.5902 20.2447 27.4619 20.192 27.3281 20.192H26.1273C26.102 20.192 26.0778 20.1822 26.0598 20.1646C26.0419 20.147 26.0317 20.123 26.0314 20.098V14.573C26.0314 14.5478 26.0415 14.5237 26.0595 14.5059C26.0775 14.488 26.1018 14.478 26.1273 14.478H28.3845C28.408 14.4781 28.4306 14.4867 28.4481 14.5022C28.4655 14.5177 28.4767 14.539 28.4794 14.562C28.5312 14.9762 28.734 15.3573 29.0495 15.6336C29.3651 15.91 29.7717 16.0625 30.1928 16.0625C30.6139 16.0625 31.0205 15.91 31.336 15.6336C31.6516 15.3573 31.8544 14.9762 31.9062 14.562C31.9089 14.539 31.92 14.5177 31.9375 14.5022C31.955 14.4867 31.9776 14.4781 32.001 14.478H34.2159C34.2395 14.4779 34.2624 14.4864 34.2801 14.5019C34.2978 14.5174 34.309 14.5388 34.3118 14.562C34.3636 14.9759 34.5662 15.3568 34.8816 15.633C35.197 15.9091 35.6033 16.0616 36.0242 16.0616C36.445 16.0616 36.8514 15.9091 37.1667 15.633C37.4821 15.3568 37.6847 14.9759 37.7365 14.562C37.7395 14.5389 37.7508 14.5176 37.7685 14.5021C37.7861 14.4866 37.8089 14.4781 37.8324 14.478H39.8505C39.8631 14.478 39.8756 14.4805 39.8872 14.4853C39.8988 14.49 39.9094 14.497 39.9183 14.5059C39.9272 14.5147 39.9343 14.5251 39.9391 14.5367C39.9439 14.5482 39.9464 14.5606 39.9464 14.573V20.098C39.9464 20.1232 39.9363 20.1474 39.9183 20.1652C39.9003 20.183 39.876 20.193 39.8505 20.193H38.6508C38.5169 20.193 38.3886 20.2457 38.294 20.3395C38.1994 20.4332 38.1462 20.5604 38.1462 20.693V33.273C38.1462 33.4056 38.1994 33.5328 38.294 33.6266C38.3886 33.7204 38.5169 33.773 38.6508 33.773H42.7677C42.9015 33.773 43.0299 33.7204 43.1245 33.6266C43.2191 33.5328 43.2723 33.4056 43.2723 33.273V26.558C43.2723 26.533 43.2822 26.509 43.3 26.4912C43.3177 26.4734 43.3419 26.4633 43.3671 26.463H45.6052C45.6286 26.4631 45.6512 26.4715 45.6688 26.4867C45.6865 26.502 45.6979 26.5231 45.7011 26.546C45.7529 26.9599 45.9555 27.3408 46.2709 27.617C46.5863 27.8931 46.9926 28.0456 47.4135 28.0456C47.8343 28.0456 48.2407 27.8931 48.556 27.617C48.8714 27.3408 49.074 26.9599 49.1258 26.546C49.129 26.5231 49.1405 26.502 49.1581 26.4867C49.1757 26.4715 49.1983 26.4631 49.2217 26.463H51.259C51.2843 26.4633 51.3084 26.4734 51.3261 26.4912C51.3439 26.509 51.3539 26.533 51.3539 26.558V49.082H51.3528ZM48.0048 36.735H44.2127C43.8374 36.7358 43.4777 36.8841 43.2125 37.1472C42.9473 37.4104 42.7983 37.7671 42.798 38.139V40.307C42.7985 40.6788 42.9477 41.0352 43.2129 41.2982C43.4781 41.5611 43.8376 41.7092 44.2127 41.71H48.0048C48.3801 41.7095 48.7399 41.5615 49.0052 41.2985C49.2706 41.0355 49.42 40.679 49.4205 40.307V38.139C49.4202 37.7669 49.271 37.4101 49.0056 37.1469C48.7402 36.8837 48.3803 36.7356 48.0048 36.735ZM48.4114 40.307C48.4114 40.4139 48.3686 40.5164 48.2923 40.592C48.2161 40.6676 48.1126 40.71 48.0048 40.71H44.2127C44.105 40.7098 44.0019 40.6672 43.9258 40.5916C43.8498 40.5161 43.8071 40.4137 43.8071 40.307V38.139C43.8069 38.0861 43.8173 38.0337 43.8376 37.9847C43.858 37.9358 43.8878 37.8913 43.9255 37.8538C43.9631 37.8163 44.0079 37.7865 44.0572 37.7661C44.1065 37.7457 44.1593 37.7352 44.2127 37.735H48.0048C48.0583 37.735 48.1112 37.7455 48.1606 37.7658C48.21 37.7861 48.2549 37.8159 48.2927 37.8534C48.3305 37.8909 48.3604 37.9355 48.3808 37.9845C48.4011 38.0335 48.4116 38.086 48.4114 38.139V40.307ZM39.347 36.735H35.556C35.1805 36.7356 34.8205 36.8837 34.5551 37.1469C34.2897 37.4101 34.1405 37.7669 34.1402 38.139V40.307C34.1408 40.679 34.2901 41.0355 34.5555 41.2985C34.8209 41.5615 35.1807 41.7095 35.556 41.71H39.347C39.7223 41.7095 40.0821 41.5615 40.3475 41.2985C40.6129 41.0355 40.7622 40.679 40.7627 40.307V38.139C40.7625 37.7669 40.6132 37.4101 40.3478 37.1469C40.0824 36.8837 39.7225 36.7356 39.347 36.735ZM39.7537 40.307C39.7537 40.4139 39.7108 40.5164 39.6346 40.592C39.5583 40.6676 39.4549 40.71 39.347 40.71H35.556C35.4481 40.71 35.3447 40.6676 35.2684 40.592C35.1921 40.5164 35.1493 40.4139 35.1493 40.307V38.139C35.1492 38.086 35.1596 38.0335 35.18 37.9845C35.2003 37.9355 35.2303 37.8909 35.2681 37.8534C35.3058 37.8159 35.3507 37.7861 35.4001 37.7658C35.4495 37.7455 35.5025 37.735 35.556 37.735H39.347C39.4005 37.735 39.4535 37.7455 39.5029 37.7658C39.5523 37.7861 39.5971 37.8159 39.6349 37.8534C39.6727 37.8909 39.7026 37.9355 39.723 37.9845C39.7434 38.0335 39.7538 38.086 39.7537 38.139V40.307ZM36.341 28.32V25.793C36.3487 25.3575 36.2688 24.9249 36.1059 24.5203C35.943 24.1158 35.7005 23.7474 35.3925 23.4368C35.0844 23.1261 34.717 22.8794 34.3117 22.7109C33.9064 22.5425 33.4713 22.4558 33.0318 22.4558C32.5923 22.4558 32.1572 22.5425 31.7519 22.7109C31.3466 22.8794 30.9792 23.1261 30.6711 23.4368C30.3631 23.7474 30.1205 24.1158 29.9577 24.5203C29.7948 24.9249 29.7149 25.3575 29.7226 25.793V28.32C29.7228 28.7205 29.8834 29.1045 30.1691 29.3878C30.4547 29.6711 30.8421 29.8305 31.2462 29.831H34.8163C35.2203 29.8305 35.6075 29.6712 35.8931 29.3882C36.1788 29.1051 36.3395 28.7213 36.34 28.321L36.341 28.32ZM30.7316 28.32V25.793C30.7252 25.4897 30.78 25.1881 30.8927 24.906C31.0054 24.6238 31.1738 24.3668 31.388 24.15C31.6022 23.9333 31.858 23.761 32.1402 23.6434C32.4225 23.5258 32.7256 23.4653 33.0318 23.4653C33.338 23.4653 33.6411 23.5258 33.9233 23.6434C34.2056 23.761 34.4613 23.9333 34.6755 24.15C34.8898 24.3668 35.0582 24.6238 35.1709 24.906C35.2836 25.1881 35.3384 25.4897 35.3319 25.793V28.32C35.3319 28.4556 35.2776 28.5855 35.1809 28.6814C35.0842 28.7772 34.9531 28.831 34.8163 28.831H31.2462C31.1098 28.8308 30.9791 28.7769 30.8826 28.6814C30.7862 28.5858 30.7319 28.4562 30.7316 28.321V28.32ZM30.5984 36.735H26.8074C26.4319 36.7356 26.072 36.8837 25.8065 37.1469C25.5411 37.4101 25.3919 37.7669 25.3917 38.139V40.307C25.3922 40.679 25.5415 41.0355 25.8069 41.2985C26.0723 41.5615 26.4321 41.7095 26.8074 41.71H30.5984C30.9737 41.7095 31.3335 41.5615 31.5989 41.2985C31.8643 41.0355 32.0136 40.679 32.0141 40.307V38.139C32.0139 37.7669 31.8647 37.4101 31.5993 37.1469C31.3338 36.8837 30.9739 36.7356 30.5984 36.735ZM31.0051 40.307C31.0051 40.4139 30.9622 40.5164 30.886 40.592C30.8097 40.6676 30.7063 40.71 30.5984 40.71H26.8074C26.6996 40.7098 26.5963 40.6672 26.5201 40.5917C26.4439 40.5162 26.401 40.4138 26.4007 40.307V38.139C26.4007 38.0321 26.4435 37.9294 26.5198 37.8537C26.596 37.778 26.6994 37.7353 26.8074 37.735H30.5984C30.6519 37.735 30.7049 37.7455 30.7543 37.7658C30.8037 37.7861 30.8486 37.8159 30.8863 37.8534C30.9241 37.8909 30.954 37.9355 30.9744 37.9845C30.9948 38.0335 31.0052 38.086 31.0051 38.139V40.307ZM21.8498 36.735H18.0588C17.6833 36.7356 17.3234 36.8837 17.058 37.1469C16.7926 37.4101 16.6433 37.7669 16.6431 38.139V40.307C16.6436 40.679 16.7929 41.0355 17.0583 41.2985C17.3237 41.5615 17.6835 41.7095 18.0588 41.71H21.8498C22.2252 41.7095 22.5849 41.5615 22.8503 41.2985C23.1157 41.0355 23.265 40.679 23.2656 40.307V38.139C23.2653 37.7669 23.1161 37.4101 22.8507 37.1469C22.5853 36.8837 22.2253 36.7356 21.8498 36.735ZM22.2565 40.307C22.2565 40.4139 22.2137 40.5164 22.1374 40.592C22.0611 40.6676 21.9577 40.71 21.8498 40.71H18.0588C17.9509 40.71 17.8475 40.6676 17.7712 40.592C17.695 40.5164 17.6521 40.4139 17.6521 40.307V38.139C17.652 38.086 17.6624 38.0335 17.6828 37.9845C17.7032 37.9355 17.7331 37.8909 17.7709 37.8534C17.8087 37.8159 17.8535 37.7861 17.9029 37.7658C17.9523 37.7455 18.0053 37.735 18.0588 37.735H21.8498C21.9033 37.735 21.9563 37.7455 22.0057 37.7658C22.0551 37.7861 22.1 37.8159 22.1377 37.8534C22.1755 37.8909 22.2055 37.9355 22.2258 37.9845C22.2462 38.0335 22.2566 38.086 22.2565 38.139V40.307Z" fill="black"/>
</svg>
